# xmcd CD database file
#
# Track frame offsets:
#	150
#	15805
#	35901
#	61432
#	79382
#	104075
#	120396
#	139707
#	162503
#	186189
#	202743
#	223806
#	249338
#	272851
#	296125
#	320744
#
# Disc length: 4738 seconds
#
# Revision: 1
# Processed by: cddbd v1.5.2PL0 Copyright (c) Steve Scherf et al.
# Submitted via: CDex 1.70beta2
#
DISCID=f5128010
DTITLE=SMOOTH ACE - OTHER PEOPLE'S SONGS
DYEAR=2003
DGENRE=Pop
TTITLE0=LOVE LOVE LOVE
TTITLE1=らいおんハート
TTITLE2=You Go Your Way
TTITLE3=ANNIVERSARY
TTITLE4=Everything
TTITLE5=亜麻色の髪の乙女〜ウィンター・アカペラ・ヴァージョン〜
TTITLE6=もう恋なんてしない
TTITLE7=Missing
TTITLE8=One more time, One more chance
TTITLE9=そして僕は途方に暮れる
TTITLE10=クリスマス・イブ
TTITLE11=KISS OF LIFE
TTITLE12=Yes-No
TTITLE13=見上げてごらん夜の星を
TTITLE14=X'MAS DAY IN THE NEXT LIFE
TTITLE15=逢いたいね
EXTD=YEAR: 2003
EXTT0=
EXTT1=
EXTT2=
EXTT3=
EXTT4=
EXTT5=
EXTT6=
EXTT7=
EXTT8=
EXTT9=
EXTT10=
EXTT11=
EXTT12=
EXTT13=
EXTT14=
EXTT15=
PLAYORDER=
